<svg width="64" height="64" viewBox="0 0 64 64" fill="none" xmlns="http://www.w3.org/2000/svg">
<g clip-path="url(#clip0_1011_2627)">
<rect width="64" height="64" rx="8" fill="url(#paint0_linear_1011_2627)"/>
<path d="M-4.55667 14.0974C10.7759 -0.66172 35.1705 -0.197448 49.9297 15.135C64.6889 30.4676 64.2241 54.8628 48.8915 69.622C33.5589 84.381 9.16428 83.9156 -5.59487 68.5831C-20.3538 53.2506 -19.889 28.8566 -4.55667 14.0974ZM3.46767 17.3825C-8.70869 29.1038 -9.07797 48.4766 2.64316 60.6531C14.3644 72.8297 33.7372 73.1987 45.9138 61.4776C58.0905 49.7564 58.4603 30.383 46.739 18.2063C35.0177 6.02972 15.6443 5.66121 3.46767 17.3825Z" fill="url(#paint1_linear_1011_2627)"/>
<path d="M6.78676 19.5154C17.4358 9.26465 34.3787 9.58743 44.6294 20.2364C54.8801 30.8855 54.5573 47.8283 43.9084 58.0791C33.2593 68.3299 16.3165 68.007 6.06568 57.358C-4.18512 46.709 -3.86228 29.7662 6.78676 19.5154ZM13.802 22.4055C5.91763 29.995 5.67872 42.5391 13.2681 50.4236C20.8577 58.3081 33.4018 58.5471 41.2863 50.9575C49.1707 43.3679 49.4098 30.8238 41.8201 22.9393C34.2305 15.0551 21.6864 14.8159 13.802 22.4055Z" fill="url(#paint2_linear_1011_2627)"/>
<path d="M17.935 24.9543C23.9488 19.1655 33.517 19.3478 39.3059 25.3615C45.0946 31.3753 44.9123 40.9436 38.8987 46.7324C32.8849 52.5213 23.3167 52.3389 17.5277 46.3252C11.7388 40.3114 11.9212 30.7432 17.935 24.9543ZM23.5395 27.7533C19.8746 31.2811 19.7636 37.1123 23.2913 40.7772C26.8192 44.4421 32.6503 44.5532 36.3152 41.0253C39.98 37.4975 40.0912 31.6663 36.5634 28.0015C33.0356 24.3367 27.2044 24.2256 23.5395 27.7533Z" fill="url(#paint3_linear_1011_2627)"/>
<path d="M71.5117 -20.5303C72.5643 -21.5593 76.9173 -13.5417 77.9473 -12.4893C78.977 -11.4363 86.9592 -7.08051 85.9062 -6.05078L36.0098 32.8467C36.3409 34.6463 35.793 36.5725 34.376 37.9365C32.1316 40.0969 28.5608 40.0285 26.4004 37.7842C24.24 35.5399 24.3076 31.9691 26.5518 29.8086C27.9754 28.4382 29.933 27.9654 31.7256 28.375L71.5117 -20.5303Z" fill="url(#paint4_linear_1011_2627)"/>
</g>
<defs>
<linearGradient id="paint0_linear_1011_2627" x1="32" y1="0" x2="32" y2="64" gradientUnits="userSpaceOnUse">
<stop stop-color="#E6F7FF"/>
<stop offset="1" stop-color="#91D5FF"/>
</linearGradient>
<linearGradient id="paint1_linear_1011_2627" x1="-4.55632" y1="14.0971" x2="29.4561" y2="49.4309" gradientUnits="userSpaceOnUse">
<stop stop-color="#005CE7"/>
<stop offset="1" stop-color="#004EC3"/>
</linearGradient>
<linearGradient id="paint2_linear_1011_2627" x1="6.78676" y1="19.5154" x2="32.4863" y2="46.2134" gradientUnits="userSpaceOnUse">
<stop stop-color="#2AA1FF"/>
<stop offset="1" stop-color="#0B6CFF"/>
</linearGradient>
<linearGradient id="paint3_linear_1011_2627" x1="17.9349" y1="24.9544" x2="30.0717" y2="37.5627" gradientUnits="userSpaceOnUse">
<stop stop-color="#69C0FF"/>
<stop offset="1" stop-color="#2AA1FF"/>
</linearGradient>
<linearGradient id="paint4_linear_1011_2627" x1="58.4083" y1="-21.4022" x2="57.2444" y2="15.2619" gradientUnits="userSpaceOnUse">
<stop stop-color="#005CE7"/>
<stop offset="1" stop-color="#004EC3"/>
</linearGradient>
<clipPath id="clip0_1011_2627">
<rect width="64" height="64" rx="8" fill="white"/>
</clipPath>
</defs>
</svg>
