<svg width="64" height="64" viewBox="0 0 64 64" fill="none" xmlns="http://www.w3.org/2000/svg">
<g clip-path="url(#clip0_1011_2653)">
<rect width="64" height="64" rx="8" fill="url(#paint0_linear_1011_2653)"/>
<path d="M23.1509 20.3058V14.1921L26.4937 16.8425L25.2137 21.4052L23.1509 20.3058Z" fill="#002B6D"/>
<path d="M35.7361 43.2003V37.0867L39.0789 39.7371L37.7989 44.2997L35.7361 43.2003Z" fill="#002B6D"/>
<path d="M53.572 10.8137V4.76058L49.4158 4.03564L50.1617 9.74795L53.572 10.8137Z" fill="#002B6D"/>
<path d="M57.6326 46.2134C52.5848 49.6195 48.2585 51.1512 44.6535 50.8086C41.0859 50.4407 38.1771 48.1863 35.927 44.0453C35.6233 43.434 35.7145 42.9644 36.2006 42.6364L43.7162 37.565C44.2397 37.2118 44.6467 37.2909 44.9373 37.8022C45.7325 39.0613 46.7685 39.7498 48.0452 39.8678C49.3341 39.9231 50.8573 39.3579 52.6147 38.1721C54.372 36.9862 55.4919 35.9041 55.9744 34.9255C56.4942 33.9218 56.4261 32.9338 55.7701 31.9617C55.4926 31.5504 55.1468 31.2395 54.7328 31.0292C54.2935 30.7814 53.7299 30.672 53.042 30.7008C52.3289 30.6923 51.4287 30.8099 50.3417 31.0537L39.9371 32.9322C37.4124 33.3842 35.28 33.49 33.5396 33.2495C31.7741 32.9716 30.2507 32.3671 28.9694 31.436C27.6628 30.4674 26.4545 29.1606 25.3444 27.5154C23.1867 24.2372 22.6054 20.9564 23.6004 17.673C24.5954 14.3896 27.2989 11.2594 31.7111 8.28218C35.0015 6.06191 38.0211 4.65008 40.7701 4.0467C43.4939 3.40594 45.8969 3.58016 47.9792 4.56936C50.0736 5.49595 51.8478 7.31884 53.3018 10.038C53.6933 10.6989 53.646 11.1933 53.1599 11.5213L45.6444 16.5927C45.3826 16.7693 45.1265 16.8332 44.876 16.7846C44.6377 16.6733 44.4363 16.4555 44.2719 16.1312C43.6654 15.0712 42.7051 14.4948 41.391 14.4021C40.1143 14.2841 38.6907 14.7549 37.1203 15.8146C35.6994 16.7734 34.7978 17.7355 34.4153 18.7009C34.0077 19.629 34.1066 20.5417 34.7121 21.4391C35.0149 21.8878 35.4046 22.2234 35.8813 22.4459C36.3327 22.6311 36.915 22.7279 37.6281 22.7364C38.3161 22.7076 39.1975 22.6025 40.2724 22.4214L50.5452 20.4686C53.0072 20.0044 55.1271 19.88 56.9048 20.0952C58.6825 20.3105 60.2372 20.921 61.569 21.9269C62.8755 22.8955 64.0778 24.2336 65.1758 25.9415C67.4596 29.4067 68.054 32.7875 66.9589 36.0839C65.8639 39.3803 62.7552 42.7568 57.6326 46.2134Z" fill="#002B6D"/>
<path d="M57.6326 40.0981C52.5848 43.5043 48.2585 45.036 44.6535 44.6933C41.0859 44.3255 38.1771 42.071 35.927 37.9301C35.6233 37.3188 35.7145 36.8491 36.2006 36.5211L43.7162 31.4498C44.2397 31.0966 44.6467 31.1756 44.9373 31.6869C45.7325 32.9461 46.7685 33.6346 48.0452 33.7526C49.3341 33.8079 50.8573 33.2427 52.6147 32.0568C54.372 30.871 55.4919 29.7888 55.9744 28.8103C56.4942 27.8065 56.4261 26.8186 55.7701 25.8464C55.4926 25.4351 55.1468 25.1243 54.7328 24.9139C54.2935 24.6662 53.7299 24.5567 53.042 24.5856C52.3289 24.5771 51.4287 24.6947 50.3417 24.9385L39.9371 26.817C37.4124 27.269 35.28 27.3747 33.5396 27.1342C31.7741 26.8564 30.2507 26.2519 28.9694 25.3207C27.6628 24.3522 26.4545 23.0454 25.3444 21.4002C23.1867 18.1219 22.6054 14.8411 23.6004 11.5578C24.5954 8.27441 27.2989 5.14414 31.7111 2.16695C35.0015 -0.053329 38.0211 -1.46516 40.7701 -2.06853C43.4939 -2.7093 45.8969 -2.53508 47.9792 -1.54587C50.0736 -0.619289 51.8478 1.2036 53.3018 3.92279C53.6933 4.58367 53.646 5.07811 53.1599 5.4061L45.6444 10.4774C45.5994 10.5078 45.5546 10.5348 45.5099 10.5585C45.1247 10.7629 44.6395 10.5947 44.3974 10.2321C44.3534 10.1663 44.3116 10.0942 44.2719 10.0159C43.6654 8.95593 42.7051 8.37956 41.391 8.28682C40.1143 8.16885 38.6907 8.63971 37.1203 9.69939C35.6994 10.6581 34.7978 11.6203 34.4153 12.5857C34.0077 13.5138 34.1066 14.4265 34.7121 15.3239C35.0149 15.7726 35.4046 16.1082 35.8813 16.3307C36.3327 16.5158 36.915 16.6127 37.6281 16.6212C38.3161 16.5923 39.1975 16.4873 40.2724 16.3061L50.5452 14.3533C53.0072 13.8892 55.1271 13.7647 56.9048 13.98C58.6825 14.1952 60.2372 14.8058 61.569 15.8117C62.8755 16.7802 64.0778 18.1184 65.1758 19.8262C67.4596 23.2914 68.054 26.6722 66.9589 29.9687C65.8639 33.2651 62.7552 36.6416 57.6326 40.0981Z" fill="url(#paint1_linear_1011_2653)"/>
<path d="M11.9148 22.8128V16.6992L15.2576 19.3496L13.9777 23.9123L11.9148 22.8128Z" fill="#002B6D"/>
<path d="M34.3334 60.2607V54.2076L30.1772 53.4827L30.9232 59.195L34.3334 60.2607Z" fill="#002B6D"/>
<path d="M23.8087 67.8889C23.36 68.1916 22.9221 68.1878 22.495 67.8774L-12.7137 40.3758C-13.2669 39.8784 -13.2631 39.4405 -12.7023 39.0621L-4.28933 33.3852C-3.80325 33.0572 -3.36536 33.061 -2.97565 33.3967L15.9939 49.6545C17.3013 50.7857 18.5713 51.942 19.804 53.1237C21.0366 54.3053 22.2506 55.4995 23.4459 56.7064L23.6141 56.5928C22.9171 54.9954 22.2701 53.3914 21.6731 51.7808C21.0761 50.1703 20.4851 48.5284 19.9003 46.8553L11.9811 23.3858C11.7906 22.8614 11.9383 22.4352 12.4244 22.1072L20.7812 16.4682C21.3795 16.0645 21.787 16.2249 22.0037 16.9493L34.2731 59.9299C34.4385 60.4168 34.2781 60.8243 33.792 61.1523L23.8087 67.8889Z" fill="#002B6D"/>
<path d="M23.8087 61.7731C23.36 62.0759 22.9221 62.0721 22.495 61.7617L-12.7137 34.26C-13.2669 33.7627 -13.2631 33.3248 -12.7023 32.9464L-4.28933 27.2695C-3.80325 26.9415 -3.36536 26.9453 -2.97565 27.2809L15.9939 43.5388C17.3013 44.6699 18.5713 45.8263 19.804 47.0079C21.0121 48.1661 22.2024 49.3363 23.3746 50.5187C23.4159 50.5604 23.4811 50.5669 23.5298 50.534C23.5786 50.501 23.597 50.4379 23.5735 50.3838C22.8919 48.8172 22.2585 47.2443 21.6731 45.6651C21.0761 44.0546 20.4851 42.4127 19.9003 40.7396L11.9811 17.2701C11.7906 16.7457 11.9383 16.3195 12.4244 15.9915L20.7812 10.3525C21.3795 9.94882 21.787 10.1092 22.0037 10.8336L34.2731 53.8141C34.4385 54.3011 34.2781 54.7086 33.792 55.0366L23.8087 61.7731Z" fill="url(#paint2_linear_1011_2653)"/>
</g>
<defs>
<linearGradient id="paint0_linear_1011_2653" x1="32" y1="0" x2="32" y2="64" gradientUnits="userSpaceOnUse">
<stop stop-color="#E6F7FF"/>
<stop offset="1" stop-color="#91D5FF"/>
</linearGradient>
<linearGradient id="paint1_linear_1011_2653" x1="32.2346" y1="1.81369" x2="50.025" y2="28.1786" gradientUnits="userSpaceOnUse">
<stop stop-color="#2AA1FF"/>
<stop offset="1" stop-color="#0B6CFF"/>
</linearGradient>
<linearGradient id="paint2_linear_1011_2653" x1="4.04925" y1="21.6428" x2="21.2108" y2="47.0758" gradientUnits="userSpaceOnUse">
<stop stop-color="#2AA1FF"/>
<stop offset="1" stop-color="#0B6CFF"/>
</linearGradient>
<clipPath id="clip0_1011_2653">
<rect width="64" height="64" rx="8" fill="white"/>
</clipPath>
</defs>
</svg>
