<svg width="64" height="64" viewBox="0 0 64 64" fill="none" xmlns="http://www.w3.org/2000/svg">
<rect width="64" height="64" rx="8" fill="url(#paint0_linear_1011_2698)"/>
<path d="M9.32789 15.7926L29.3279 4.21369C30.9808 3.25672 33.0193 3.25672 34.6723 4.21369L54.6723 15.7926C56.3193 16.7462 57.3334 18.5051 57.3334 20.4082V43.5917C57.3334 45.4948 56.3193 47.2537 54.6723 48.2073L34.6723 59.7862C33.0193 60.7432 30.9808 60.7432 29.3279 59.7862L9.32789 48.2073C7.68086 47.2537 6.66675 45.4948 6.66675 43.5917V20.4082C6.66675 18.5051 7.68087 16.7462 9.32789 15.7926Z" fill="url(#paint1_linear_1011_2698)"/>
<rect width="26.9096" height="26.9096" rx="2.66667" transform="matrix(0.866025 -0.5 0.866025 0.5 8.69556 17.8076)" fill="url(#paint2_linear_1011_2698)"/>
<path d="M32.5742 20.2333C32.4129 20.3265 32.2399 20.3198 32.0553 20.2132L31.1555 19.6937C30.6326 19.3918 30.3035 19.0578 30.1684 18.6918C30.0332 18.3258 29.9879 17.9524 30.0323 17.5715C30.0914 17.1822 30.1659 16.8017 30.2558 16.4301C30.3303 16.0497 30.3384 15.6987 30.2802 15.3771C30.2219 15.0555 30.0005 14.7837 29.616 14.5617C29.2161 14.3308 28.7845 14.2425 28.3212 14.2969C27.8425 14.3424 27.3245 14.526 26.767 14.8479C26.0776 15.2459 25.7696 15.6102 25.8433 15.9407C25.9162 16.2538 26.2445 16.5704 26.8283 16.8905C27.059 17.0237 27.0864 17.1411 26.9103 17.2427L24.5779 18.5894C24.3991 18.6926 24.1222 18.6483 23.9209 18.5601C23.9066 18.5539 23.8922 18.5474 23.8776 18.5408C22.357 17.7137 21.6166 16.8712 21.6565 16.0135C21.6811 15.1468 22.5221 14.2349 24.1798 13.2779C25.7788 12.3547 27.2519 11.8417 28.5992 11.7387C29.9311 11.6269 31.1585 11.8951 32.2813 12.5433C32.9889 12.9518 33.4794 13.379 33.753 13.8249C34.0266 14.2708 34.1646 14.7062 34.167 15.1311C34.184 15.5475 34.148 15.9502 34.0588 16.3391C33.9843 16.7195 33.9608 17.0617 33.9883 17.3655C34.0158 17.6693 34.1987 17.9189 34.5371 18.1143L35.0919 18.46C35.2765 18.5666 35.2881 18.6665 35.1267 18.7596L32.5742 20.2333ZM39.4054 22.5766C38.804 22.9238 38.1958 23.1062 37.5808 23.1238C36.9805 23.133 36.3958 22.9733 35.8267 22.6447L35.3883 22.3916C34.8038 22.0541 34.5195 21.7121 34.5353 21.3655C34.5658 21.0105 34.8818 20.6593 35.4832 20.3121C36.0993 19.9564 36.7076 19.7739 37.3079 19.7648C37.9082 19.7557 38.5005 19.9198 39.085 20.2573L39.5234 20.5104C40.0925 20.839 40.3691 21.1765 40.3533 21.5231C40.3375 21.8697 40.0215 22.2208 39.4054 22.5766Z" fill="url(#paint3_linear_1011_2698)"/>
<rect width="26.4829" height="26.4829" rx="2.66667" transform="matrix(0.866025 -0.5 2.20305e-08 1 33.0652 32.6149)" fill="url(#paint4_linear_1011_2698)"/>
<path d="M42.7189 43.0399C42.5576 43.1331 42.4769 43.0731 42.4769 42.86L42.4769 41.821C42.4769 41.2171 42.6016 40.6212 42.8509 40.0332C43.1003 39.4452 43.4011 38.8719 43.7531 38.3135C44.1199 37.7465 44.4866 37.1973 44.8533 36.6659C45.2201 36.1167 45.5281 35.5925 45.7775 35.0933C46.0269 34.5941 46.1516 34.1225 46.1516 33.6785C46.1516 33.2167 46.0122 32.9597 45.7335 32.9075C45.4548 32.8376 45.0367 32.9635 44.4793 33.2853C43.7898 33.6834 43.3204 34.1409 43.071 34.6579C42.8363 35.1486 42.7263 35.7183 42.7409 36.367C42.7409 36.6334 42.6529 36.8174 42.4769 36.919L40.1444 38.2657C39.9657 38.3689 39.8656 38.2225 39.8413 38.0321C39.8396 38.0186 39.8379 38.0048 39.8364 37.9906C39.7924 36.311 40.1518 34.8336 40.9146 33.5585C41.6774 32.2656 42.8876 31.1406 44.5453 30.1835C46.1443 29.2604 47.3251 28.916 48.088 29.1505C48.8508 29.3672 49.2322 30.1239 49.2322 31.4204C49.2322 32.2374 49.1075 33.0198 48.8581 33.7676C48.6087 34.5155 48.3007 35.2084 47.9339 35.8464C47.5819 36.4759 47.2151 37.0695 46.8337 37.6272C46.467 38.1763 46.1589 38.6828 45.9095 39.1464C45.6602 39.6101 45.5355 40.0373 45.5355 40.4281L45.5135 41.1068C45.5135 41.3199 45.4328 41.4731 45.2714 41.5662L42.7189 43.0399ZM44.1052 48.5268C43.5037 48.8741 43.0417 48.9721 42.7189 48.821C42.4109 48.6614 42.2568 48.253 42.2568 47.5959L42.2568 47.0897C42.2568 46.4148 42.4109 45.8197 42.7189 45.3044C43.0417 44.7806 43.5037 44.3451 44.1052 43.9978C44.7213 43.6421 45.1834 43.5441 45.4915 43.7037C45.7995 43.8633 45.9535 44.2805 45.9535 44.9554L45.9535 45.4616C45.9535 46.1187 45.7995 46.705 45.4915 47.2203C45.1834 47.7356 44.7213 48.1711 44.1052 48.5268Z" fill="url(#paint5_linear_1011_2698)"/>
<rect width="26.483" height="26.483" rx="2.66667" transform="matrix(0.866025 0.5 -2.20305e-08 1 8 19.3734)" fill="url(#paint6_linear_1011_2698)"/>
<path d="M17.6537 40.9462C17.4924 40.853 17.4117 40.6999 17.4117 40.4867L17.4117 39.4477C17.4117 38.8439 17.5364 38.3919 17.7858 38.0919C18.0351 37.7919 18.3359 37.5659 18.6879 37.4139C19.0547 37.2704 19.4214 37.1447 19.7882 37.0368C20.1549 36.9111 20.4629 36.7426 20.7123 36.5313C20.9617 36.3201 21.0864 35.9925 21.0864 35.5485C21.0864 35.0867 20.947 34.6688 20.6683 34.2947C20.3896 33.9029 19.9715 33.5461 19.4141 33.2243C18.7246 32.8262 18.2552 32.7417 18.0058 32.9707C17.7711 33.1904 17.6611 33.633 17.6757 34.2986C17.6757 34.565 17.5877 34.6474 17.4117 34.5458L15.0792 33.1992C14.9005 33.096 14.8004 32.834 14.7761 32.6155C14.7744 32.6001 14.7727 32.5844 14.7712 32.5684C14.7272 30.838 15.0866 29.7756 15.8494 29.3813C16.6122 28.9692 17.8224 29.2416 19.4801 30.1987C21.0791 31.1218 22.26 32.1411 23.0228 33.2564C23.7856 34.354 24.167 35.551 24.167 36.8475C24.167 37.6645 24.0423 38.3029 23.7929 38.7628C23.5435 39.2227 23.2355 39.5599 22.8687 39.7744C22.5167 39.9974 22.1499 40.1675 21.7685 40.2848C21.4018 40.4105 21.0937 40.5612 20.8444 40.7369C20.595 40.9126 20.4703 41.1958 20.4703 41.5866L20.4483 42.2399C20.4483 42.453 20.3676 42.513 20.2062 42.4198L17.6537 40.9462ZM19.04 48.0338C18.4386 47.6865 17.9765 47.251 17.6537 46.7272C17.3457 46.2119 17.1916 45.6257 17.1916 44.9686L17.1916 44.4624C17.1916 43.7875 17.3457 43.3702 17.6537 43.2106C17.9765 43.0595 18.4386 43.1576 19.04 43.5048C19.6561 43.8605 20.1182 44.2961 20.4263 44.8114C20.7343 45.3267 20.8884 45.9218 20.8884 46.5967L20.8884 47.1029C20.8884 47.76 20.7343 48.1684 20.4263 48.328C20.1182 48.4876 19.6561 48.3895 19.04 48.0338Z" fill="url(#paint7_linear_1011_2698)"/>
<defs>
<linearGradient id="paint0_linear_1011_2698" x1="32" y1="0" x2="32" y2="64" gradientUnits="userSpaceOnUse">
<stop stop-color="#E6F7FF"/>
<stop offset="1" stop-color="#91D5FF"/>
</linearGradient>
<linearGradient id="paint1_linear_1011_2698" x1="32.0001" y1="2.66663" x2="32.0001" y2="40" gradientUnits="userSpaceOnUse">
<stop stop-color="#005CE7"/>
<stop offset="1" stop-color="#004EC3"/>
</linearGradient>
<linearGradient id="paint2_linear_1011_2698" x1="13.4548" y1="0" x2="13.4548" y2="18.6297" gradientUnits="userSpaceOnUse">
<stop stop-color="#2AA1FF"/>
<stop offset="1" stop-color="#0B6CFF"/>
</linearGradient>
<linearGradient id="paint3_linear_1011_2698" x1="24.167" y1="13.2853" x2="31.9998" y2="26.8522" gradientUnits="userSpaceOnUse">
<stop stop-color="#E6F7FF"/>
<stop offset="1" stop-color="#91D5FF"/>
</linearGradient>
<linearGradient id="paint4_linear_1011_2698" x1="13.2415" y1="0" x2="13.2415" y2="18.3343" gradientUnits="userSpaceOnUse">
<stop stop-color="#2AA1FF"/>
<stop offset="1" stop-color="#0B6CFF"/>
</linearGradient>
<linearGradient id="paint5_linear_1011_2698" x1="44.5325" y1="30.1909" x2="52.3653" y2="43.7578" gradientUnits="userSpaceOnUse">
<stop stop-color="#E6F7FF"/>
<stop offset="1" stop-color="#91D5FF"/>
</linearGradient>
<linearGradient id="paint6_linear_1011_2698" x1="13.2415" y1="0" x2="13.2415" y2="18.3344" gradientUnits="userSpaceOnUse">
<stop stop-color="#2AA1FF"/>
<stop offset="1" stop-color="#0B6CFF"/>
</linearGradient>
<linearGradient id="paint7_linear_1011_2698" x1="19.4673" y1="30.1913" x2="11.6344" y2="43.7582" gradientUnits="userSpaceOnUse">
<stop stop-color="#E6F7FF"/>
<stop offset="1" stop-color="#91D5FF"/>
</linearGradient>
</defs>
</svg>
