<svg width="64" height="64" viewBox="0 0 64 64" fill="none" xmlns="http://www.w3.org/2000/svg">
<g clip-path="url(#clip0_1011_2641)">
<rect width="64" height="64" rx="8" fill="url(#paint0_linear_1011_2641)"/>
<path d="M32 64H0V0H64V32H32V64Z" fill="url(#paint1_linear_1011_2641)"/>
<path d="M8.31373 24C8.10458 24 8 23.886 8 23.658L8.31373 8.34198C8.31373 8.11399 8.41083 8 8.60504 8H12.1681C12.3324 8 12.4444 8.08143 12.5042 8.24428L16 16.2565L19.4958 8.24428C19.5705 8.08143 19.69 8 19.8543 8H23.395C23.6041 8 23.7087 8.11399 23.7087 8.34198L24 23.658C24 23.886 23.9029 24 23.7087 24H20.7059C20.4967 24 20.3922 23.886 20.3922 23.658L20.2577 18.1863C20.2428 17.5023 20.2502 16.7858 20.2801 16.0366C20.31 15.2712 20.3399 14.5547 20.3697 13.887H20.2801C20.0261 14.5384 19.7498 15.2224 19.451 15.9389C19.1522 16.6555 18.8385 17.3476 18.5098 18.0153L16.4482 22.3634C16.3735 22.5262 16.2465 22.6076 16.0672 22.6076H15.9328C15.7535 22.6076 15.634 22.5262 15.5742 22.3634L13.4902 17.9908C13.1914 17.3394 12.8852 16.6555 12.5714 15.9389C12.2726 15.2061 11.9963 14.5221 11.7423 13.887H11.6527C11.6825 14.571 11.7124 15.2875 11.7423 16.0366C11.7722 16.7858 11.7796 17.5023 11.7647 18.1863L11.6303 23.658C11.6303 23.886 11.5257 24 11.3165 24H8.31373Z" fill="white"/>
<path d="M40.3137 24C40.1046 24 40 23.886 40 23.658L40.3137 8.34198C40.3137 8.11399 40.4108 8 40.605 8H44.1681C44.3324 8 44.4444 8.08143 44.5042 8.24428L48 16.2565L51.4958 8.24428C51.5705 8.08143 51.69 8 51.8543 8H55.395C55.6041 8 55.7087 8.11399 55.7087 8.34198L56 23.658C56 23.886 55.9029 24 55.7087 24H52.7059C52.4967 24 52.3922 23.886 52.3922 23.658L52.2577 18.1863C52.2428 17.5023 52.2502 16.7858 52.2801 16.0366C52.31 15.2712 52.3399 14.5547 52.3697 13.887H52.2801C52.0261 14.5384 51.7498 15.2224 51.451 15.9389C51.1522 16.6555 50.8385 17.3476 50.5098 18.0153L48.4482 22.3634C48.3735 22.5262 48.2465 22.6076 48.0672 22.6076H47.9328C47.7535 22.6076 47.634 22.5262 47.5742 22.3634L45.4902 17.9908C45.1914 17.3394 44.8852 16.6555 44.5714 15.9389C44.2726 15.2061 43.9963 14.5221 43.7423 13.887H43.6527C43.6825 14.571 43.7124 15.2875 43.7423 16.0366C43.7722 16.7858 43.7796 17.5023 43.7647 18.1863L43.6303 23.658C43.6303 23.886 43.5257 24 43.3165 24H40.3137Z" fill="white"/>
<path d="M9.67319 56C9.44656 56 9.33325 55.886 9.33325 55.658V40.342C9.33325 40.114 9.44656 40 9.67319 40H15.2821C17.5645 40 19.2075 40.4478 20.2112 41.3435C21.2148 42.2392 21.7166 43.5176 21.7166 45.1786C21.7166 46.2534 21.49 47.1735 21.0367 47.9389C20.5835 48.7043 19.855 49.2417 18.8514 49.5511V49.6L22.5907 55.5847C22.6716 55.6987 22.6878 55.7964 22.6393 55.8779C22.5907 55.9593 22.5017 56 22.3722 56H18.6329C18.4548 56 18.3172 55.9267 18.2201 55.7802L14.9179 50.1618H13.3396V55.658C13.3396 55.886 13.2263 56 12.9997 56H9.67319ZM13.3396 47.0107H15.2821C16.0915 47.0107 16.6985 46.8723 17.1032 46.5954C17.5079 46.3023 17.7102 45.8382 17.7102 45.2031C17.7102 44.5842 17.5241 44.1364 17.1518 43.8595C16.7956 43.5664 16.2048 43.4198 15.3792 43.4198H13.3396V47.0107Z" fill="white"/>
<path d="M39.2607 46.38C38.8647 46.38 38.6667 46.1793 38.6667 45.7778L38.6667 41.9355C38.6667 41.5341 38.8647 41.3334 39.2607 41.3334H56.7395C57.1354 41.3334 57.3334 41.5341 57.3334 41.9355V45.7778C57.3334 46.1793 57.1354 46.38 56.7395 46.38H39.2607ZM39.2607 54.6667C38.8647 54.6667 38.6667 54.466 38.6667 54.0646L38.6667 50.2223C38.6667 49.8208 38.8647 49.6201 39.2607 49.6201H56.7395C57.1354 49.6201 57.3334 49.8208 57.3334 50.2223V54.0646C57.3334 54.466 57.1354 54.6667 56.7395 54.6667H39.2607Z" fill="url(#paint2_linear_1011_2641)"/>
<path d="M0 32L64 32" stroke="#B7E4FF" stroke-width="0.666667" stroke-linecap="round"/>
<path d="M31.9866 64.0133L31.9866 0.0133077" stroke="#B7E4FF" stroke-width="0.666667" stroke-linecap="round"/>
</g>
<defs>
<linearGradient id="paint0_linear_1011_2641" x1="32" y1="0" x2="32" y2="64" gradientUnits="userSpaceOnUse">
<stop stop-color="#E6F7FF"/>
<stop offset="1" stop-color="#91D5FF"/>
</linearGradient>
<linearGradient id="paint1_linear_1011_2641" x1="32" y1="0" x2="32" y2="44.3077" gradientUnits="userSpaceOnUse">
<stop stop-color="#2AA1FF"/>
<stop offset="1" stop-color="#0B6CFF"/>
</linearGradient>
<linearGradient id="paint2_linear_1011_2641" x1="48.0001" y1="41.3334" x2="48.0001" y2="49.8182" gradientUnits="userSpaceOnUse">
<stop stop-color="#005CE7"/>
<stop offset="1" stop-color="#004EC3"/>
</linearGradient>
<clipPath id="clip0_1011_2641">
<rect width="64" height="64" rx="8" fill="white"/>
</clipPath>
</defs>
</svg>
