<svg width="64" height="64" viewBox="0 0 64 64" fill="none" xmlns="http://www.w3.org/2000/svg">
<g clip-path="url(#clip0_1011_2608)">
<rect width="64" height="64" rx="8" fill="url(#paint0_linear_1011_2608)"/>
<path d="M34.6667 25.3154C34.6667 21.9034 37.8263 19.3689 41.157 20.109L54.4904 23.072C56.9306 23.6143 58.6667 25.7786 58.6667 28.2783V72.0001C58.6667 74.9456 56.2789 77.3334 53.3334 77.3334H40.0001C37.0546 77.3334 34.6667 74.9456 34.6667 72.0001V25.3154Z" fill="url(#paint1_linear_1011_2608)"/>
<path d="M5.33325 36.2783C5.33325 33.7786 7.06942 31.6143 9.50962 31.072L22.843 28.109C26.1737 27.3689 29.3333 29.9034 29.3333 33.3154V72.0001C29.3333 74.9456 26.9454 77.3334 23.9999 77.3334H10.6666C7.72107 77.3334 5.33325 74.9456 5.33325 72.0001V36.2783Z" fill="url(#paint2_linear_1011_2608)"/>
<path d="M21.3333 13.3333C21.3333 10.3878 23.7211 8 26.6666 8H37.3332C40.2788 8 42.6666 10.3878 42.6666 13.3333V72C42.6666 74.9455 40.2788 77.3333 37.3333 77.3333H26.6666C23.7211 77.3333 21.3333 74.9455 21.3333 72V13.3333Z" fill="url(#paint3_linear_1011_2608)"/>
</g>
<defs>
<linearGradient id="paint0_linear_1011_2608" x1="32" y1="0" x2="32" y2="64" gradientUnits="userSpaceOnUse">
<stop stop-color="#E6F7FF"/>
<stop offset="1" stop-color="#91D5FF"/>
</linearGradient>
<linearGradient id="paint1_linear_1011_2608" x1="46.6667" y1="18.6667" x2="46.6667" y2="56.0001" gradientUnits="userSpaceOnUse">
<stop stop-color="#005CE7"/>
<stop offset="1" stop-color="#004EC3"/>
</linearGradient>
<linearGradient id="paint2_linear_1011_2608" x1="17.3333" y1="26.6667" x2="17.3333" y2="56.0001" gradientUnits="userSpaceOnUse">
<stop stop-color="#69C0FF"/>
<stop offset="1" stop-color="#2AA1FF"/>
</linearGradient>
<linearGradient id="paint3_linear_1011_2608" x1="31.9999" y1="8" x2="31.9999" y2="56" gradientUnits="userSpaceOnUse">
<stop stop-color="#2AA1FF"/>
<stop offset="1" stop-color="#0B6CFF"/>
</linearGradient>
<clipPath id="clip0_1011_2608">
<rect width="64" height="64" rx="8" fill="white"/>
</clipPath>
</defs>
</svg>
